<svg width="512" height="512" viewBox="0 0 512 512" fill="none" xmlns="http://www.w3.org/2000/svg">
<path d="M420.666 235.416C434.637 235.427 448.508 233.068 461.689 228.439C461.785 230.771 461.833 233.097 461.833 235.416C461.833 279.089 444.484 320.972 413.603 351.853C382.722 382.734 340.839 400.083 297.166 400.083V472.125C194.25 430.958 50.1665 369.208 50.1665 235.416C50.1665 191.744 67.5153 149.86 98.3963 118.979C129.277 88.0984 171.161 70.7496 214.833 70.7496H297.166C299.499 70.7496 301.825 70.7977 304.144 70.8937C297.585 89.5201 295.588 109.448 298.32 129.005C301.053 148.563 308.435 167.18 319.849 183.296C331.262 199.411 346.374 212.554 363.916 221.623C381.458 230.692 400.919 235.422 420.666 235.416Z" fill="#2885FF"/>
<path d="M430.279 187.951L435.342 176.301C444.236 155.687 460.533 139.156 481.017 129.968L496.66 123.011C498.55 122.136 500.15 120.739 501.271 118.985C502.392 117.231 502.988 115.192 502.988 113.11C502.988 111.028 502.392 108.989 501.271 107.235C500.15 105.481 498.55 104.084 496.66 103.21L481.881 96.6228C460.882 87.1737 444.306 70.0307 435.569 48.7254L430.361 36.1696C429.596 34.2215 428.262 32.5489 426.533 31.3701C424.804 30.1912 422.759 29.5607 420.667 29.5607C418.574 29.5607 416.529 30.1912 414.8 31.3701C413.071 32.5489 411.737 34.2215 410.972 36.1696L405.764 48.746C397.017 70.0473 380.434 87.1829 359.431 96.6228L344.673 103.189C342.778 104.061 341.172 105.458 340.046 107.214C338.921 108.971 338.323 111.014 338.323 113.1C338.323 115.186 338.921 117.229 340.046 118.985C341.172 120.742 342.778 122.139 344.673 123.011L360.296 129.988C380.784 139.167 397.088 155.691 405.991 176.301L411.054 187.951C411.845 189.848 413.18 191.469 414.891 192.609C416.602 193.748 418.611 194.357 420.667 194.357C422.722 194.357 424.732 193.748 426.442 192.609C428.153 191.469 429.488 189.848 430.279 187.951Z" fill="url(#paint0_linear_16_2)"/>
<defs>
<linearGradient id="paint0_linear_16_2" x1="420.655" y1="29.5607" x2="420.655" y2="194.357" gradientUnits="userSpaceOnUse">
<stop stop-color="#FFBB00"/>
<stop offset="1" stop-color="#FF8000"/>
</linearGradient>
</defs>
</svg>
